With: Jodie Foster, Abigail Breslin and Gerard Butler

Alles kan gebeuren op Nim's Island, een magische plek die beheerst wordt door de gedachten van een meisje, Nim. Een wereld die gespiegeld is aan haar favoriete boekpersonage, Alex Rover, 's werelds grootste avonturier. Maar de schrijfster van de boeken, Alexandra, leeft gewoon een eenzaam bestaan in de grote stad. Wanneer Nim's vader vermist wordt, brengt een serie gebeurtenissen Nim bij Alexandra en moeten ze moed ontlenen aan Alex Rover om Nim's eiland te doorkruisen.

A young girl inhabits an isolated island with her scientist father and communicates with a reclusive author of the novel she's reading. 
 
http://www.imdb.com/title/tt0410377	

------------------------ Dutch Friends ------------------------
---------------------------------------------------------------
- Bezoek ook eens mijn vrienden op:  http://www.Film-Test.nl --
----- voor mijn Nederlandse Sync. ondertitels ---- en meer ----
------- http://www.Film-Test.nl ---- Over Films en meer -------
---------------------------------------------------------------

General:

Complete name                    : Nim's IslandNim's Island.avi
Format                           : AVI
Format/Info                      : Audio Video Interleave
File size                        : 1.76 GiB
Duration                         : 1h 31mn
Overall bit rate                 : 2 745 Kbps

Video:

Format                           : MPEG-4 Visual
Format profile                   : Simple@L3
Format settings, BVOP            : No
Format settings, QPel            : No
Format settings, GMC             : No warppoints
Format settings, Matrix          : Default (H.263)
Codec ID                         : XVID
Codec ID/Hint                    : XviD
Duration                         : 1h 31mn
Bit rate                         : 2 286 Kbps
Width                            : 720 pixels
Height                           : 304 pixels
Display aspect ratio             : 2.35:1
Frame rate                       : 25.000 fps
Color space                      : YUV
Chroma subsampling               : 4:2:0
Bit depth                        : 8 bits
Scan type                        : Progressive
Compression mode                 : Lossy
Bits/(Pixel*Frame)               : 0.418
Stream size                      : 1.47 GiB (83%)
Writing library                  : XviD 1.1.2 (UTC 2006-11-01)

Audio:

Format                           : AC-3
Format/Info                      : Audio Coding 3
Mode extension                   : CM (complete main)
Codec ID                         : 2000
Duration                         : 1h 31mn
Bit rate mode                    : Constant
Bit rate                         : 448 Kbps
Channel(s)                       : 6 channels
Channel positions                : Front: L C R, Side: L R, LFE
Sampling rate                    : 48.0 KHz
Bit depth                        : 16 bits
Compression mode                 : Lossy
Stream size                      : 294 MiB (16%)
Alignment                        : Aligned on interleaves
Interleave, duration             : 32 ms (0.80 video frame)
Interleave, preload duration     : 64 ms